<?xml version="1.0" encoding="UTF-8"?>
<!DOCTYPE svg PUBLIC "-//W3C//DTD SVG 1.1//EN" "http://www.w3.org/Graphics/SVG/1.1/DTD/svg11.dtd">
<!-- Creator: CorelDRAW -->
<svg xmlns="http://www.w3.org/2000/svg" xml:space="preserve" width="210mm" height="297mm" version="1.1" style="shape-rendering:geometricPrecision; text-rendering:geometricPrecision; image-rendering:optimizeQuality; fill-rule:evenodd; clip-rule:evenodd"
viewBox="0 0 21000 29700"
 xmlns:xlink="http://www.w3.org/1999/xlink"
 enable-background="new 0 0 334 84"
 xmlns:dc="http://purl.org/dc/elements/1.1/"
 xmlns:cc="http://creativecommons.org/ns#"
 xmlns:rdf="http://www.w3.org/1999/02/22-rdf-syntax-ns#"
 xmlns:svg="http://www.w3.org/2000/svg"
 xmlns:sodipodi="http://sodipodi.sourceforge.net/DTD/sodipodi-0.dtd"
 xmlns:inkscape="http://www.inkscape.org/namespaces/inkscape"
 inkscape:version="0.92.3 (2405546, 2018-03-11)"
 sodipodi:docname="aeromexico.svg">
 <defs>
  <style type="text/css">
   <![CDATA[
    .fil0 {fill:#ED0677}
    .fil1 {fill:#FFCB08}
    .fil2 {fill:url(#id0)}
    .fil3 {fill:url(#id1)}
   ]]>
  </style>
  <linearGradient id="id0" gradientUnits="userSpaceOnUse" x1="8560.64" y1="13634.3" x2="7344.61" y2="14699.5">
   <stop offset="0" style="stop-opacity:1; stop-color:#ED1A77"/>
   <stop offset="0.658824" style="stop-opacity:1; stop-color:#F5757E"/>
   <stop offset="1" style="stop-opacity:1; stop-color:#FFCA0D"/>
  </linearGradient>
  <linearGradient id="id1" gradientUnits="userSpaceOnUse" x1="9069.12" y1="14113.9" x2="7766.93" y2="15967.6">
   <stop offset="0" style="stop-opacity:1; stop-color:#ED1A77"/>
   <stop offset="0.290196" style="stop-opacity:1; stop-color:#F24D58"/>
   <stop offset="1" style="stop-opacity:1; stop-color:#FFCA0D"/>
  </linearGradient>
 </defs>
 <g id="Layer_x0020_1">
  <metadata id="CorelCorpID_0Corel-Layer"/>
  <g id="AnterAja.cdr">
   <sodipodi:namedview pagecolor="#ffffff" bordercolor="#666666" borderopacity="1" objecttolerance="10" gridtolerance="10" guidetolerance="10" inkscape:pageopacity="0" inkscape:pageshadow="2" inkscape:window-width="1280" inkscape:window-height="1004" id="namedview198" showgrid="false" fit-margin-top="0" fit-margin-left="0" fit-margin-right="0" fit-margin-bottom="0" inkscape:zoom="8.7486948" inkscape:cx="247.11667" inkscape:cy="40.949792" inkscape:window-x="-8" inkscape:window-y="-8" inkscape:window-maximized="1" inkscape:current-layer="g3"/>
   <sodipodi:namedview id="base" pagecolor="#00ffff" bordercolor="#666666" borderopacity="1.0" inkscape:pageopacity="0" inkscape:pageshadow="2" inkscape:zoom="1.4" inkscape:cx="451.73565" inkscape:cy="-10.201303" inkscape:document-units="px" inkscape:current-layer="layer1" showgrid="false" fit-margin-left="0.3" fit-margin-top="0.3" fit-margin-right="0.3" fit-margin-bottom="0.3" units="px" inkscape:window-width="1920" inkscape:window-height="1001" inkscape:window-x="-9" inkscape:window-y="-9" inkscape:window-maximized="1"/>
   <g>
    <path class="fil0" d="M9847 14752c-81,0 -210,49 -216,127 -5,49 51,78 96,59 35,-15 65,-55 114,-55 56,0 101,32 103,84 1,20 -12,14 -31,14 -35,0 -101,-1 -130,3 -275,41 -214,344 -8,344 81,0 154,-9 229,-9 96,-1 94,-56 94,-126l0 -170c0,-96 -13,-145 -64,-196 -39,-40 -107,-75 -187,-75zm16 460c-53,0 -113,-8 -113,-63 0,-54 62,-60 116,-60 95,0 79,-25 78,110 -19,16 -52,13 -81,13zm1514 -233c0,-57 45,-99 104,-97 78,3 119,92 91,97l-195 0zm0 116c62,0 124,0 186,0 58,0 124,9 154,-28 27,-34 18,-115 3,-157 -64,-179 -339,-223 -459,-47 -29,41 -37,82 -38,145 0,64 -4,117 17,169 55,137 232,183 376,129 163,-62 87,-199 -12,-147 -40,21 -81,48 -143,36 -49,-10 -84,-44 -84,-100zm-1046 -81c0,-79 15,-122 97,-122 61,0 95,22 98,84 3,57 0,116 0,170 0,81 -13,156 52,177 44,14 102,-10 102,-80l0 -245c0,-139 -79,-232 -220,-232l-60 0c-116,0 -220,60 -220,179l0 308c0,97 158,100 152,-10 -3,-61 -1,-164 -1,-229zm642 -106c40,-3 86,2 125,-1 80,-8 78,-124 -3,-129 -40,-2 -82,-1 -122,-1 -4,-32 19,-140 -76,-141 -92,0 -77,93 -77,138 -25,7 -43,3 -62,16 -33,24 -34,79 -2,103 23,18 40,9 59,17 11,16 5,58 5,82 0,84 -9,174 27,234 62,102 153,94 254,94 76,0 86,-61 70,-94 -23,-47 -75,-36 -136,-36 -69,0 -63,-48 -63,-110 0,-54 -3,-119 1,-172zm936 -135l1 0c34,0 62,22 73,52 7,4 15,1 21,-8 41,-59 156,-73 197,-28 31,36 22,93 -34,107 -57,12 -106,-13 -149,28 -16,14 -28,30 -31,57l0 266c0,43 -35,77 -77,77l-1 0c-43,0 -77,-34 -77,-77l0 -397c0,-42 34,-77 77,-77z"/>
    <path class="fil1" d="M12477 15091c24,-3 53,-1 79,-2 20,0 25,-4 25,16 1,29 6,94 -9,101 -4,3 -171,29 -183,-45 -11,-70 61,-66 88,-70zm101 -111c-50,13 -200,-30 -297,67 -89,89 -58,292 171,281 56,-3 114,-7 170,-9 32,-1 55,1 78,-13 19,-11 32,-28 34,-57 5,-51 1,-125 1,-179 0,-111 7,-199 -95,-269 -162,-111 -366,-9 -371,78 -3,56 58,80 103,55 38,-21 67,-59 127,-49 31,4 45,13 61,31 10,11 19,29 21,45 2,19 -3,19 -3,19zm738 112c25,-4 52,-2 79,-3 17,0 25,-3 27,13 1,10 0,27 0,38 0,21 7,58 -11,66 -6,3 -169,29 -182,-45 -14,-72 72,-67 87,-69zm103 -111c-131,0 -225,-7 -299,67 -73,73 -53,193 23,245 42,30 81,38 148,35 55,-2 113,-7 170,-9 37,-1 110,2 113,-69 2,-58 0,-121 0,-180 0,-58 5,-119 -14,-168 -52,-135 -216,-185 -365,-120 -33,15 -84,54 -87,97 -3,55 57,80 103,55 38,-19 66,-59 127,-49 47,7 89,41 81,96zm-436 407c9,-50 3,-489 3,-550 0,-94 -127,-100 -148,-22 -13,50 5,451 -3,547 -5,51 -29,56 -81,56 -91,0 -95,75 -66,109 31,37 137,21 171,9 65,-24 111,-72 124,-149zm-72 -858l-3 0c-104,0 -104,152 3,151 108,-1 111,-151 0,-151z"/>
    <path class="fil2" d="M8202 14139c-148,22 -275,99 -399,190 -275,228 -507,-154 -296,-336 422,-326 860,-418 1276,-152 32,23 95,61 125,87l-485 235c-82,-23 -154,-31 -221,-24z"/>
    <path class="fil3" d="M8902 13924c189,-67 351,-136 550,-192 -22,-28 -44,-56 -66,-84 -20,-28 -3,-36 35,-30 209,34 418,68 627,101 54,11 65,32 23,80 -144,164 -287,327 -431,491 -17,20 -34,16 -35,-26 -4,-35 -7,-69 -10,-104 -142,36 -425,137 -424,136l-398 181c0,-1 -256,136 -380,209 -474,273 -636,724 -318,900 280,162 732,-23 806,-563 19,-146 -5,-376 -108,-546l398 -181c107,221 171,510 141,814 -99,853 -933,1162 -1470,862 -570,-314 -493,-1060 94,-1517 149,-103 300,-197 453,-282l513 -249 0 0z"/>
   </g>
  </g>
 </g>
</svg>
