<?xml version="1.0" encoding="UTF-8"?>
<!DOCTYPE svg PUBLIC "-//W3C//DTD SVG 1.1//EN" "http://www.w3.org/Graphics/SVG/1.1/DTD/svg11.dtd">
<!-- Creator: CorelDRAW -->
<svg xmlns="http://www.w3.org/2000/svg" xml:space="preserve" width="210mm" height="297mm" version="1.1" style="shape-rendering:geometricPrecision; text-rendering:geometricPrecision; image-rendering:optimizeQuality; fill-rule:evenodd; clip-rule:evenodd"
viewBox="0 0 21000 29700"
 xmlns:xlink="http://www.w3.org/1999/xlink"
 xmlns:dc="http://purl.org/dc/elements/1.1/"
 xmlns:cc="http://creativecommons.org/ns#"
 xmlns:rdf="http://www.w3.org/1999/02/22-rdf-syntax-ns#"
 xmlns:svg="http://www.w3.org/2000/svg"
 xmlns:sodipodi="http://sodipodi.sourceforge.net/DTD/sodipodi-0.dtd"
 xmlns:inkscape="http://www.inkscape.org/namespaces/inkscape"
 inkscape:version="0.92.3 (2405546, 2018-03-11)"
 sodipodi:docname="nexen.svg">
 <defs>
  <style type="text/css">
   <![CDATA[
    .fil1 {fill:#FD1602}
    .fil0 {fill:#FE1600}
    .fil2 {fill:black;fill-rule:nonzero}
   ]]>
  </style>
 </defs>
 <g id="Layer_x0020_1">
  <metadata id="CorelCorpID_0Corel-Layer"/>
  <g id="ID_x0020_Express.cdr">
   <sodipodi:namedview id="base" pagecolor="#00ffff" bordercolor="#666666" borderopacity="1.0" inkscape:pageopacity="0" inkscape:pageshadow="2" inkscape:zoom="3.959798" inkscape:cx="180.54658" inkscape:cy="38.72218" inkscape:document-units="px" inkscape:current-layer="layer1" showgrid="false" units="px" fit-margin-left="0.5" fit-margin-right="0.5" fit-margin-bottom="0.5" fit-margin-top="0.5" inkscape:window-width="1920" inkscape:window-height="1001" inkscape:window-x="-9" inkscape:window-y="-9" inkscape:window-maximized="1"/>
   <g>
    <path class="fil0" d="M10101 13329c164,9 342,2 505,2 168,0 336,0 504,0 263,0 598,-5 699,306 97,299 -87,604 -238,723 -219,171 -474,195 -817,190l101 -407c16,-61 103,-375 106,-408l-2342 -1 -446 1671 949 1c16,-29 148,-549 171,-630l126 -470c11,-39 30,-132 44,-159l412 0 -334 1257c179,7 366,2 545,2 182,0 365,0 547,0 367,0 665,-10 982,-109 546,-171 944,-534 1128,-1052 97,-275 122,-656 33,-950 -187,-613 -758,-805 -1360,-819 -179,-4 -362,-1 -542,-1 -181,0 -365,-3 -547,1l-226 853zm-715 -850c-261,36 -468,219 -542,441 -103,304 90,549 400,516 254,-28 470,-229 541,-440 101,-302 -91,-559 -399,-517z"/>
    <path class="fil1" d="M10473 16221c2,-31 35,-155 47,-173 60,-2 248,-21 202,103 -29,78 -151,74 -249,70zm-430 470l300 2c10,-41 59,-233 73,-256l67 -1 102 256 322 1 -120 -297c52,-31 159,-46 220,-180 47,-104 33,-238 -33,-314 -61,-68 -173,-102 -291,-106 -127,-4 -272,-5 -399,-1l-241 896zm979 1l768 1 66 -247 -473 -1 24 -96 240 -1 57 -215 -236 -1 21 -90 470 0 66 -246 -765 -1 -181 669c-16,57 -52,172 -57,228zm-3811 -1l772 2 66 -246 -473 -2c11,-139 42,-89 262,-95l59 -216 -236 -2c0,-24 14,-74 24,-89l462 -1c12,-19 68,-219 69,-245l-763 -2 -242 896zm5804 -346c-14,8 -163,184 -170,204 37,41 129,95 195,118 90,32 162,45 271,42 185,-5 339,-97 372,-253 66,-316 -347,-326 -380,-387 -40,-75 128,-54 220,-11 36,16 76,50 101,58 28,-36 152,-177 165,-202 -21,-40 -148,-95 -204,-110 -81,-22 -186,-37 -278,-21 -169,30 -317,128 -318,312 -1,188 193,225 337,286 103,43 60,116 -103,75 -39,-10 -80,-29 -112,-47 -36,-20 -66,-48 -96,-64zm-899 -2c-20,17 -164,185 -170,206 148,162 566,239 758,51 90,-88 131,-260 24,-366 -43,-43 -99,-69 -163,-94 -49,-20 -171,-51 -167,-89 8,-69 184,-17 252,20 25,15 49,33 70,44 23,-14 101,-117 128,-149 17,-19 37,-32 42,-59 -140,-98 -303,-154 -486,-123 -165,28 -317,130 -314,311 3,248 349,250 385,316 37,67 -86,63 -159,43 -76,-22 -149,-69 -200,-111zm-4056 348c65,6 219,1 301,2 54,1 47,-5 73,-33 27,-32 171,-201 195,-211l96 244 321 0c-6,-48 -190,-438 -188,-456 8,-20 173,-194 201,-221 35,-33 68,-73 101,-108 19,-20 92,-91 99,-113l-279 0c-40,0 -56,-8 -77,14 -35,36 -153,182 -181,199l-81 -212 -322 -1c1,23 91,227 107,262 18,43 36,87 56,131 20,45 4,42 -59,111 -38,40 -343,361 -363,392zm1496 -456c-2,-29 40,-166 49,-199 46,0 95,-3 128,17 62,37 71,195 -177,182zm-425 457l298 1 65 -242c183,-10 267,12 412,-70 202,-115 273,-495 -67,-571 -120,-26 -334,-16 -469,-15l-181 667c-16,64 -53,170 -58,230z"/>
    <path class="fil2" d="M7209 17152l-121 -158 -37 0 0 228 40 0 0 -162 124 162 33 0 0 -228 -39 0 0 158zm281 -159l-37 0 -100 229 41 0 23 -55 107 0 23 55 42 0 -99 -229zm20 139l-78 0 39 -91 39 91zm245 37l-68 -175 -44 0 94 230 35 0 93 -230 -42 0 -68 175zm218 -175l0 228 40 0 0 -228 -40 0zm368 197l0 -96 -96 0 0 35 58 0 0 43c-7,5 -15,9 -25,12 -9,3 -19,5 -30,5 -11,0 -22,-2 -31,-6 -10,-4 -18,-10 -24,-17 -7,-8 -12,-16 -16,-26 -4,-10 -5,-21 -5,-33 0,-11 1,-21 5,-31 4,-10 9,-19 16,-26 6,-7 14,-13 23,-17 9,-5 18,-7 29,-7 7,0 13,1 19,2 6,1 12,3 17,5 5,2 9,5 14,8 4,3 9,6 13,10l25 -31c-6,-5 -12,-9 -18,-13 -6,-4 -12,-7 -19,-9 -7,-3 -15,-5 -23,-6 -8,-2 -17,-3 -27,-3 -17,0 -32,4 -47,10 -14,6 -26,15 -37,25 -10,11 -18,24 -24,38 -5,14 -8,30 -8,46 0,16 3,32 8,46 6,14 14,27 24,37 10,11 23,19 37,25 14,6 30,9 48,9 10,0 19,-1 28,-3 9,-1 18,-4 26,-7 8,-4 15,-7 22,-12 6,-4 13,-9 18,-13zm235 -198l-36 0 -100 229 41 0 23 -55 107 0 23 55 42 0 -100 -229zm20 139l-77 0 38 -91 39 91zm252 -101l71 0 0 -37 -183 0 0 37 72 0 0 191 40 0 0 -191zm347 -37l-167 0 0 228 169 0 0 -36 -130 0 0 -61 114 0 0 -36 -114 0 0 -59 128 0 0 -36zm426 -1l-37 0 -99 229 41 0 23 -55 107 0 23 55 42 0 -100 -229zm20 139l-77 0 38 -91 39 91zm389 -24c0,-16 -3,-31 -8,-45 -6,-14 -14,-26 -25,-36 -11,-10 -23,-18 -38,-24 -15,-6 -31,-9 -49,-9l-84 0 0 228 84 0c18,0 34,-3 49,-9 15,-5 27,-13 38,-24 11,-10 19,-22 25,-36 5,-14 8,-29 8,-45zm-41 1c0,11 -2,21 -6,31 -4,9 -9,17 -16,24 -7,7 -15,13 -25,16 -9,4 -20,6 -32,6l-45 0 0 -156 45 0c12,0 23,2 32,6 10,4 18,10 25,17 7,7 12,15 16,24 4,10 6,20 6,32zm234 60l-68 -175 -44 0 94 230 35 0 94 -230 -43 0 -68 175zm301 -176l-37 0 -99 229 40 0 24 -55 106 0 23 55 42 0 -99 -229zm20 139l-78 0 39 -91 39 91zm342 20l-121 -158 -36 0 0 228 39 0 0 -162 124 162 34 0 0 -228 -40 0 0 158zm361 34l-26 -26c-9,9 -19,16 -29,21 -10,6 -22,8 -36,8 -10,0 -20,-2 -29,-6 -10,-4 -17,-10 -24,-17 -7,-8 -12,-16 -16,-26 -3,-10 -5,-21 -5,-32 0,-11 2,-22 5,-32 4,-9 9,-18 16,-25 7,-7 14,-13 24,-17 9,-5 19,-7 29,-7 13,0 25,3 35,8 10,5 20,12 29,21l25 -30c-5,-5 -11,-10 -17,-14 -6,-5 -12,-8 -20,-12 -7,-3 -14,-5 -23,-7 -8,-2 -18,-3 -28,-3 -17,0 -33,4 -47,10 -14,6 -27,14 -37,25 -10,11 -18,23 -24,38 -6,14 -9,29 -9,46 0,16 3,32 9,46 6,14 14,27 24,37 10,11 22,19 36,25 14,6 30,9 46,9 11,0 20,-1 29,-3 9,-1 17,-4 24,-8 7,-3 14,-8 21,-12 6,-5 12,-11 18,-17zm275 -192l-167 0 0 228 169 0 0 -36 -129 0 0 -61 113 0 0 -36 -113 0 0 -59 127 0 0 -36zm514 114c0,-16 -3,-31 -9,-45 -6,-14 -14,-26 -24,-36 -11,-10 -24,-18 -39,-24 -14,-6 -30,-9 -48,-9l-84 0 0 228 84 0c18,0 34,-3 48,-9 15,-5 28,-13 39,-24 10,-10 18,-22 24,-36 6,-14 9,-29 9,-45zm-42 1c0,11 -2,21 -5,31 -4,9 -9,17 -16,24 -7,7 -15,13 -25,16 -10,4 -20,6 -32,6l-45 0 0 -156 45 0c12,0 22,2 32,6 10,4 18,10 25,17 7,7 12,15 16,24 3,10 5,20 5,32zm324 -115l-167 0 0 228 168 0 0 -36 -129 0 0 -61 113 0 0 -36 -113 0 0 -59 128 0 0 -36zm116 228l158 0 0 -36 -119 0 0 -192 -39 0 0 228zm268 -228l0 228 40 0 0 -228 -40 0zm260 175l-68 -175 -44 0 94 230 34 0 94 -230 -43 0 -67 175zm383 -175l-167 0 0 228 169 0 0 -36 -130 0 0 -61 113 0 0 -36 -113 0 0 -59 128 0 0 -36zm307 228l-61 -86c8,-2 16,-5 22,-9 7,-4 12,-9 17,-15 5,-6 9,-12 11,-20 3,-7 4,-16 4,-25 0,-11 -2,-21 -6,-30 -3,-9 -9,-17 -16,-23 -7,-6 -16,-11 -27,-15 -10,-3 -22,-5 -35,-5l-100 0 0 228 39 0 0 -79 50 0 56 79 46 0zm-47 -153c0,12 -4,21 -13,28 -8,7 -19,10 -34,10l-58 0 0 -77 58 0c15,0 26,4 35,10 8,7 12,16 12,29zm254 62l90 -137 -46 0 -64 101 -63 -101 -47 0 90 138 0 90 40 0 0 -91z"/>
   </g>
  </g>
 </g>
</svg>
