<?xml version="1.0" encoding="utf-8"?>
<!-- Generator: Adobe Illustrator 25.0.1, SVG Export Plug-In . SVG Version: 6.00 Build 0)  -->
<svg version="1.0" id="Layer_1" xmlns="http://www.w3.org/2000/svg" xmlns:xlink="http://www.w3.org/1999/xlink" x="0px" y="0px"
	 viewBox="0 0 610 426" style="enable-background:new 0 0 610 426;" xml:space="preserve">
<style type="text/css">
	.st0{fill:#1F489D;}
	.st1{fill:#7B9FC9;}
	.st2{fill:#91ABD0;}
	.st3{fill:#21479C;}
	.st4{fill:#0C51A3;}
	.st5{fill:#174DA1;}
	.st6{fill:#F1F3F7;}
	.st7{fill:#124FA1;}
	.st8{fill:#0453A3;}
	.st9{fill:#194BA0;}
	.st10{fill:#5F8CC2;}
</style>
<g id="XMLID_1_">
	<path id="XMLID_2_" class="st0" d="M207.4,204.7h-3.8v-13.9h6.9c4.8,0,9.5,1.5,9.5,6.5v2.1C219.7,203.6,212.1,204.7,207.4,204.7z
		 M203.2,167.4h4.2c4.8,0,10.7,0.6,10.7,5.3v2.1c0,3.8-5.9,5.3-10.1,5.3h-4.8V167.4L203.2,167.4z M187.2,216H210
		c12.8,0,25.5-3.2,25.5-15.4v-3.8c0-5.9-5.9-11.2-11.8-11.2V185c4.8-0.6,10.1-5.9,10.1-11.2v-4.2c0-9.1-9.1-13.9-18.1-13.9h-28.6
		V216L187.2,216z"/>
	<path id="XMLID_6_" class="st0" d="M362.7,216h16v-27.2c3.2,2.1,17.5,27.2,19.8,27.2h19.8c-1.1-3.8-23.4-31-23.4-32
		c0-1.1,19.8-24.5,21.9-28.3h-19.2l-18.1,24v-24h-16V216H362.7z"/>
	<rect id="XMLID_7_" x="545" y="155.6" class="st0" width="16" height="60.3"/>
	<path id="XMLID_8_" class="st0" d="M266.6,168.6L266.6,168.6L274,192h-14.9L266.6,168.6z M234,216h15.4c1.5,0,5.3-10.7,5.3-12.8
		h21.9c2.7,0,3.8,12.8,6.5,12.8h16.6l-22.9-60.3h-19.2c-1.5,0-5.3,12.2-6.5,14.4c-2.1,4.8-3.8,10.1-5.9,15.4
		c-2.1,4.8-3.8,9.5-5.9,14.9C238.4,205.3,235.1,211.8,234,216z"/>
	<polygon id="XMLID_11_" class="st0" points="301.8,216 316.8,216 316.8,175.4 337,216 356.8,216 356.8,155.6 342.3,155.6 
		342.3,195.6 322.5,155.6 301.8,155.6 	"/>
	<path id="XMLID_12_" class="st0" d="M506,167.4h5.3c4.2,0,10.7,1.5,10.7,5.3v2.1c0,5.3-6.5,6.5-12.2,6.5H506L506,167.4L506,167.4z
		 M490,216h16v-24h3.8c5.9,0,8.6,4.8,9.5,9.1c1.5,4.2,3.8,10.1,4.8,14.4h16.6c0-2.1-4.8-13.9-5.3-16.6c-1.1-2.7-2.1-5.3-3.2-8
		c-1.5-4.2-3.8-3.8-5.3-5.9c5.3-0.6,11.2-6.5,11.2-12.2v-4.2c0-10.1-10.1-13.9-20.8-13.9H490V216L490,216z"/>
	<path id="XMLID_15_" class="st0" d="M453.3,190.3h3.8c5.9,0,12.8,1.1,12.8,6.5c0,6.9-5.9,8-12.8,8h-3.8V190.3z M453.3,167.4h5.9
		c5.3,0,9.5,1.1,9.5,6.5c0,4.2-5.3,6.5-10.1,6.5h-5.3V167.4z M437.3,216h24.5c12.8,0,24-4.2,24-16.6v-0.6c0-7.4-4.8-13.3-11.2-13.9
		v-0.6c5.3-1.1,9.5-6.5,9.5-12.8c0-10.7-7.4-16-18.1-16h-29.3V216H437.3L437.3,216z"/>
	<path id="XMLID_19_" class="st0" d="M61.2,145.5c0-4.2,5.3-8,10.1-8H82c7.4,0,14.9,6.9,14.9,14.4v1.5c0,12.2-19.8,23.4-25.5,32.5
		c1.5,2.7,10.7,11.8,13.3,14.4c3.8,3.8,11.2,10.1,11.2,16.6v3.2c0,5.9-7.4,13.9-12.8,13.9H70.3c-3.8,0-8.6-4.2-8.6-8v-80.5h-0.6
		V145.5z M111.4,153c0-2.7-1.1-6.9-1.5-9.1c-1.1-2.1-3.8-5.9-3.8-6.9h10.7c6.5,0,14.4,5.9,14.4,12.2v3.8c0,8.6-28.3,28.8-28.3,32.5
		c0,0,21.3,21.9,23.4,24c4.2,4.2,8,8,11.8,11.8c2.1,2.1,10.1,10.1,11.2,12.2h-43.2c2.7-3.8,5.3-7.4,5.3-13.9v-2.1
		c0-8-5.9-13.9-9.5-18.1c-2.7-2.7-11.2-12.8-13.3-14.4C94.9,175.4,111.4,168.6,111.4,153L111.4,153z M144,150.3
		c0-6.5-3.8-9.1-6.5-12.8c10.7,0,16.6-1.1,19.2,7.4c1.5,4.8,0.6,19.2,0.6,26.1c0,17.5,0,35.2,0,53.3l-37.9-38.4
		c5.9-8.6,24-18.1,24-31v-4.8h0.6V150.3z M49,148.2v77.3c0,10.7,10.1,20.8,21.3,20.8h79.5c9.5,0,19.8-10.7,19.8-21.3v-79.5
		c0-10.1-10.1-19.8-21.3-19.8h-78C58.1,125.8,49,136,49,148.2z"/>
	<path id="XMLID_24_" class="st1" d="M201.1,268.7h-3.8v-3.8h3.8c-1.1-0.6-2.1-0.6-3.8-0.6v4.2C198.8,269.3,199.9,269.3,201.1,268.7
		z"/>
	<path id="XMLID_25_" class="st2" d="M559.9,268.7h-3.8v-3.8h3.8V268.7z M559.9,268.7l0.6-3.8h-4.2v4.2L559.9,268.7z"/>
	<rect id="XMLID_28_" x="197.3" y="265.6" class="st3" width="3.8" height="3.2"/>
	<path id="XMLID_29_" class="st4" d="M226.6,288.5h-5.3v-18.7h5.9c3.8,0,7.4,4.2,7.4,8v3.2C234.6,284.7,230.9,288.5,226.6,288.5z
		 M217.5,291.7h7.4c8.6,0,13.9-4.2,13.9-12.8v-1.1c0-7.4-6.5-11.8-13.9-11.8H218v25.5h-0.6V291.7z"/>
	<rect id="XMLID_32_" x="556.2" y="265.6" class="st3" width="3.8" height="3.2"/>
	<path id="XMLID_33_" class="st4" d="M160.9,289h-1.5c-1.1,0-2.7-0.6-2.7-2.1v-1.5c0-2.1,3.8-2.7,6.5-2.7h2.1v2.1
		C165.3,287.4,163.2,289,160.9,289z M155.2,275.2v2.1c2.1-0.6,2.7-1.5,5.3-1.5c2.7,0,4.2,1.1,4.2,3.8v1.1h-3.2
		c-4.2,0-9.1,1.5-9.1,6.5v0.6c0,3.2,3.8,5.3,6.9,5.3c2.7,0,3.8-1.1,5.3-2.1v2.1h3.2v-14c0-3.2-3.2-5.3-6.5-5.3h-2.1
		C158.3,272.5,155.2,273.6,155.2,275.2z"/>
	<path id="XMLID_36_" class="st4" d="M527.9,289h-1.5c-2.1,0-3.2-1.1-3.2-3.2c0-2.1,3.2-3.2,5.9-3.2h2.7v1.5
		C532.2,286.9,530.6,289,527.9,289z M522,274v3.2c1.5-0.6,3.2-2.1,5.9-2.1c2.7,0,4.2,1.1,4.2,3.8v1.1h-3.2c-3.8,0-9.1,1.5-9.1,5.3
		v2.1c0,2.1,3.2,4.8,5.3,4.8h2.1c1.5,0,3.2-1.5,4.8-2.1v2.1h3.2v-12.8c0-3.8-2.7-6.5-6.5-6.5h-2.1C524.7,272.5,523.7,273.6,522,274z
		"/>
	<path id="XMLID_39_" class="st5" d="M267.7,275.7v-2.7h-3.2v18.7h3.8v-9.5c0-3.8,1.5-6.9,5.3-6.9h0.6c2.7,0,3.8,2.7,3.8,5.3v11.2
		h3.8v-11.8c0-4.2-2.1-7.4-6.5-7.4h-0.6C269.8,272.5,269.8,274,267.7,275.7z"/>
	<path id="XMLID_40_" class="st6" d="M246.4,280.5h9.5c0-3.2-1.5-5.3-4.2-5.3h-0.6C248.5,275.7,246.4,277.8,246.4,280.5z"/>
	<path id="XMLID_41_" class="st4" d="M361,271.9v0.6c0,8,11.2,6.5,11.2,12.2v0.6c0,1.1-2.1,3.2-3.8,3.2h-1.5c-2.1,0-3.2-0.6-5.3-0.6
		v3.2c1.1,0.6,3.8,1.1,5.3,1.1c4.8,0,9.5-2.1,9.5-6.9v-1.1c0-7.4-11.2-6.9-11.2-11.8c0-2.1,1.5-3.2,3.8-3.2h2.1
		c2.1,0,2.1,0.6,3.8,0.6l0.6-3.8c-2.1,0-1.5-0.6-3.8-0.6h-2.1C365.3,265.6,361,268.3,361,271.9z"/>
	<polygon id="XMLID_42_" class="st4" points="50.5,291.7 54.3,291.7 54.9,271 62.9,291.7 66.5,291.7 74.5,270.4 74.5,291.7 
		78.9,291.7 78.9,266 72.4,266 65,286.9 64.4,286.9 57,266 50.5,266 	"/>
	<path id="XMLID_43_" class="st4" d="M316.8,289h-2.7c-1.1,0-2.1-1.1-2.1-2.7v-0.6c0-2.1,3.2-2.7,5.3-2.7h3.2v1.1
		C320.4,286.4,318.9,289,316.8,289z M310.3,274v3.2c1.5-1.1,3.2-2.1,5.3-2.1c3.2,0,4.2,1.5,4.8,4.8h-3.8c-3.8,0-9.1,2.1-9.1,5.3
		c0,4.2,2.1,6.5,6.5,6.5c3.8,0,4.2-1.5,6.5-2.7v2.1h3.2v-10.1c0-4.8-1.5-9.1-5.9-9.1h-2.1C313.6,272.5,311.5,273.6,310.3,274z"/>
	<path id="XMLID_46_" class="st4" d="M246.4,280.5c0-2.7,2.1-5.3,4.8-5.3h0.6c2.7,0,4.2,2.1,4.2,5.3H246.4z M242.6,281.6v2.7
		c0,4.8,4.2,8,9.5,8c3.2,0,3.8-0.6,5.9-1.1v-3.2c-2.1,0-2.1,1.1-4.8,1.1h-2.1c-2.7,0-4.8-2.7-5.3-5.9h13.3v-1.5
		c0-4.2-2.7-9.1-6.5-9.1h-3.2C246.4,272.5,242.6,277.3,242.6,281.6z"/>
	<path id="XMLID_49_" class="st7" d="M187.2,279.4l0.6,12.2h3.2v-12.2c0-3.2-2.1-6.5-5.3-6.5h-2.1c-2.1,0-3.8,1.5-5.3,2.7v-2.1h-3.8
		v18.7h3.8v-8c0-4.2,1.5-8,5.3-8C186,275.7,186.6,277.3,187.2,279.4z"/>
	<path id="XMLID_50_" class="st7" d="M402.1,269.8v3.8h-4.2v2.7h4.2v11.8c0,2.7,2.7,4.8,5.3,4.8l3.8-0.6V289c-2.1,1.1-5.3,0-5.3-2.1
		v-11.2h5.3v-2.7h-5.3v-5.3C404.7,267.7,402.1,268.3,402.1,269.8z"/>
	<path id="XMLID_51_" class="st8" d="M447.4,284.7c0,4.2,2.7,7.4,6.9,7.4c3.8,0,4.2-1.5,6.5-3.2v2.7h3.8v-18.7h-3.8v9.1
		c0,3.2-1.5,6.9-4.8,6.9h-1.5c-2.7,0-3.8-3.2-3.8-5.9v-10.1h-3.8v11.8L447.4,284.7L447.4,284.7z"/>
	<path id="XMLID_52_" class="st9" d="M332.8,275.7v-2.7h-3.2v18.7h3.2v-8c0-4.2,1.5-8,5.9-8c2.7,0,3.8,2.7,3.8,5.9v10.7h3.8v-10.7
		c0-4.8-1.5-8.6-6.5-8.6h-1.1C335.4,272.5,334.3,274,332.8,275.7z"/>
	<path id="XMLID_53_" class="st4" d="M87.4,280.5c0-2.7,2.1-5.3,4.8-5.3h0.6c2.7,0,4.2,2.1,4.2,5.3H87.4z M83.6,279.9v5.3
		c0,4.2,4.8,7.4,9.1,7.4c3.2,0,4.2-0.6,6.5-1.1v-3.8c-1.1,0.6-2.7,1.5-3.8,1.5h-2.7c-2.7,0-5.3-2.7-5.3-5.9h13.3v-1.5
		c0-5.3-2.7-9.1-8-9.1h-1.5C88,272.5,83.6,276.7,83.6,279.9z"/>
	<path id="XMLID_56_" class="st7" d="M415.4,284.7c0,4.8,2.7,7.4,6.9,7.4c3.2,0,4.2-1.5,5.9-2.7v2.1h3.8v-18.7h-3.8v9.5
		c0,3.2-1.5,6.5-4.8,6.5h-2.1c-1.5,0-2.7-2.7-2.7-4.8v-11.2h-3.8v11.8H415.4z"/>
	<polygon id="XMLID_57_" class="st10" points="498.6,276.7 511.3,276.7 511.3,266.6 514.6,266.6 514.6,291.7 511.3,291.7 
		510.9,279.9 510.9,291.7 515.1,291.7 515.1,266 510.9,266 510.9,276.7 	"/>
	<rect id="XMLID_58_" x="105.5" y="264.5" class="st7" width="3.8" height="27.2"/>
	<rect id="XMLID_59_" x="197.3" y="273.1" class="st8" width="3.8" height="18.7"/>
	<path id="XMLID_60_" class="st4" d="M383.4,280.5c0-2.7,2.1-5.3,4.8-5.3c2.7,0,4.2,2.1,4.8,5.3H383.4z M379.2,281.6v1.1
		c0,5.9,3.8,9.5,9.5,9.5c2.1,0,4.2-0.6,6.5-1.1v-3.8c-1.5,0.6-2.7,1.5-5.3,1.5h-2.1c-2.7,0-4.8-3.2-5.3-5.9h13.3v-2.1
		c0-4.8-2.7-8.6-7.4-8.6h-1.5C382.3,272.5,379.2,276.7,379.2,281.6z"/>
	<rect id="XMLID_63_" x="437.8" y="264.5" class="st7" width="3.8" height="27.2"/>
	<polygon id="XMLID_64_" class="st0" points="510.9,279.9 511.3,291.7 514.6,291.7 514.6,266.6 511.3,266.6 511.3,276.7 
		498.6,276.7 498.6,266.6 495.4,266.6 495.4,291.7 498.6,291.7 498.6,279.9 	"/>
	<path id="XMLID_65_" class="st4" d="M117.7,285.8c0-2.7,3.8-3.2,6.5-3.2h2.1v2.1c0,2.1-2.1,3.8-3.8,3.8H121
		C118.9,289,117.7,287.9,117.7,285.8z M116.2,274v3.2c1.5-0.6,3.2-2.1,5.9-2.1s4.2,1.1,4.2,3.8v1.1h-3.2c-3.8,0-9.1,1.5-9.1,5.3v1.5
		c0,3.2,3.2,5.3,6.5,5.3c3.2,0,3.8-1.1,5.9-2.1v2.1h3.2v-12.8c0-3.8-2.7-6.5-6.5-6.5H121C118.9,272.5,118.3,273.6,116.2,274z"/>
	<polygon id="XMLID_68_" class="st2" points="187.2,279.4 187.2,291.7 191.4,291.7 190.8,278.9 190.8,291.7 187.7,291.7 	"/>
	<path id="XMLID_69_" class="st4" d="M468.7,276.7v2.7c0,3.2,8,4.2,8,6.9c0,1.5-1.1,2.1-2.7,2.1h-1.1c-2.1,0-2.1-0.6-3.8-0.6v3.2
		c2.1,0,2.7,0.6,4.8,0.6h0.6c2.7,0,6.5-2.1,6.5-4.8v-2.1c0-4.2-8-4.8-8-7.4v-0.6c0-1.1,1.5-2.1,2.7-2.1c1.5,0,2.7,0.6,4.2,0.6v-3.2
		l-4.2-0.6H475C471.9,272.5,468.7,274.6,468.7,276.7z"/>
	<path id="XMLID_70_" class="st7" d="M542.9,269.8v3.8h-4.2v2.7h4.2v11.2c0,3.2,2.1,5.9,5.3,5.3l3.8-0.6V289
		c-2.1,1.1-5.3,0.6-5.3-2.1v-10.7h5.3v-2.7h-5.3v-5.3C545.6,267.7,542.9,268.3,542.9,269.8z"/>
	<rect id="XMLID_71_" x="556.2" y="273.1" class="st4" width="3.8" height="18.7"/>
	<path id="XMLID_72_" class="st4" d="M140.2,292.3c0,2.1-1.5,4.8-3.8,4.8h-2.1v2.7h3.8c4.2,0,6.5-8,7.4-11.8
		c1.5-4.8,4.2-10.7,5.3-14.9h-3.2l-4.8,14.4h-0.6c0-2.1-1.5-4.8-2.1-7.4c-0.6-1.5-1.5-6.9-3.2-6.9h-2.7
		C133.9,277.3,140.2,289.6,140.2,292.3z"/>
	<path id="XMLID_73_" class="st7" d="M289.6,281.6c0-3.2,2.1-5.9,5.3-5.9c2.7,0,5.3,2.7,5.3,5.3v3.8c0,2.1-2.1,4.8-3.8,4.8h-2.1
		c-2.1,0-4.2-2.7-4.2-4.8v-3.2H289.6z M285.2,281.6v2.1c0,4.2,3.2,8.6,6.9,8.6h0.6c3.2,0,4.2-1.1,6.5-2.1c0,4.2-0.6,7.4-4.8,7.4
		h-1.5c-3.2,0-4.2-1.5-6.5-1.5v2.1c0,1.5,3.8,2.1,5.3,2.1h3.2c3.8,0,7.4-3.2,7.4-6.9v-19.8h-3.2v2.1c-1.1-1.1-2.1-2.7-4.8-2.7h-2.7
		C289,272.5,285.2,277.8,285.2,281.6z"/>
</g>
</svg>
